<svg width="16" height="16" viewBox="0 0 16 16" fill="none" xmlns="http://www.w3.org/2000/svg">
<path d="M16 8.0025C16 8.3705 15.702 8.66916 15.3333 8.66916H13.6893C13.388 8.66916 13.1233 8.8725 13.0453 9.1625L11.9273 13.3238C11.8 13.7405 11.444 14.0025 11.0333 14.0025H11.022C10.6067 13.9978 10.252 13.7258 10.1393 13.3265L7.95667 4.50916L5.838 12.0018C5.71067 12.3998 5.378 12.6525 4.98467 12.6678C4.57667 12.6898 4.23867 12.4578 4.088 12.0932L3.02133 9.1105C2.926 8.8465 2.674 8.6685 2.39333 8.6685H0.666667C0.298 8.6685 0 8.36983 0 8.00183C0 7.63383 0.298 7.33516 0.666667 7.33516H2.394C3.23667 7.33516 3.99267 7.86783 4.27733 8.66116L4.90267 10.4118L7.092 2.6685C7.226 2.25183 7.57667 1.98383 7.99933 2.00183C8.41133 2.00916 8.76333 2.2805 8.876 2.6765L11.0487 11.4538L11.7567 8.8165C11.9907 7.9445 12.7847 7.33516 13.688 7.33516H15.332C15.7007 7.33516 15.9987 7.63383 15.9987 8.00183L16 8.0025Z" fill="#666666"/>
</svg>
