<svg width="24" height="24" viewBox="0 0 24 24" fill="none" xmlns="http://www.w3.org/2000/svg">
<g clip-path="url(#clip0_738_38237)">
<path d="M6.365 3.77292C5.339 2.74692 3.66 2.74692 2.634 3.77292L0.685 5.72192C0.246 6.16092 0 6.75592 0 7.37592V18.9989C0 21.7599 2.239 23.9989 5 23.9989H9V7.37692C9 6.75592 8.753 6.16092 8.314 5.72192L6.365 3.77292ZM5 18.9999H4C3.448 18.9999 3 18.5519 3 17.9999C3 17.4479 3.448 16.9999 4 16.9999H5C5.552 16.9999 6 17.4479 6 17.9999C6 18.5519 5.552 18.9999 5 18.9999ZM5 14.9999H4C3.448 14.9999 3 14.5519 3 13.9999C3 13.4479 3.448 12.9999 4 12.9999H5C5.552 12.9999 6 13.4479 6 13.9999C6 14.5519 5.552 14.9999 5 14.9999ZM5 10.9999H4C3.448 10.9999 3 10.5519 3 9.99992C3 9.44792 3.448 8.99992 4 8.99992H5C5.552 8.99992 6 9.44792 6 9.99992C6 10.5519 5.552 10.9999 5 10.9999Z" fill="#605BFF"/>
<path d="M19 0H16C13.239 0 11 2.239 11 5V24H19C21.761 24 24 21.761 24 19V5C24 2.239 21.761 0 19 0ZM16 19H15C14.448 19 14 18.552 14 18C14 17.448 14.448 17 15 17H16C16.552 17 17 17.448 17 18C17 18.552 16.552 19 16 19ZM16 15H15C14.448 15 14 14.552 14 14C14 13.448 14.448 13 15 13H16C16.552 13 17 13.448 17 14C17 14.552 16.552 15 16 15ZM16 11H15C14.448 11 14 10.552 14 10C14 9.448 14.448 9 15 9H16C16.552 9 17 9.448 17 10C17 10.552 16.552 11 16 11ZM16 7H15C14.448 7 14 6.552 14 6C14 5.448 14.448 5 15 5H16C16.552 5 17 5.448 17 6C17 6.552 16.552 7 16 7ZM20 19H19C18.448 19 18 18.552 18 18C18 17.448 18.448 17 19 17H20C20.552 17 21 17.448 21 18C21 18.552 20.552 19 20 19ZM20 15H19C18.448 15 18 14.552 18 14C18 13.448 18.448 13 19 13H20C20.552 13 21 13.448 21 14C21 14.552 20.552 15 20 15ZM20 11H19C18.448 11 18 10.552 18 10C18 9.448 18.448 9 19 9H20C20.552 9 21 9.448 21 10C21 10.552 20.552 11 20 11ZM20 7H19C18.448 7 18 6.552 18 6C18 5.448 18.448 5 19 5H20C20.552 5 21 5.448 21 6C21 6.552 20.552 7 20 7Z" fill="#605BFF"/>
</g>
<defs>
<clipPath id="clip0_738_38237">
<rect width="24" height="24" fill="white"/>
</clipPath>
</defs>
</svg>
