<svg width="24" height="26" viewBox="0 0 24 26" fill="none" xmlns="http://www.w3.org/2000/svg">
<g clip-path="url(#clip0_450_4276)">
<path d="M12 0.500061C9.62663 0.500061 7.30655 1.23317 5.33316 2.60669C3.35977 3.98021 1.8217 5.93244 0.913451 8.21652C0.00519943 10.5006 -0.232441 13.0139 0.230582 15.4387C0.693605 17.8635 1.83649 20.0907 3.51472 21.8389C5.19295 23.5871 7.33115 24.7776 9.65892 25.2599C11.9867 25.7422 14.3995 25.4947 16.5922 24.5486C18.7849 23.6025 20.6591 22.0003 21.9776 19.9447C23.2962 17.8891 24 15.4723 24 13.0001C23.9966 9.68596 22.7312 6.50861 20.4815 4.16519C18.2318 1.82176 15.1815 0.503645 12 0.500061ZM12 23.4167C10.0222 23.4167 8.08879 22.8058 6.4443 21.6612C4.79981 20.5166 3.51809 18.8897 2.76121 16.9863C2.00433 15.083 1.8063 12.9885 2.19215 10.9679C2.578 8.94724 3.53041 7.09116 4.92894 5.63437C6.32746 4.17757 8.10929 3.18548 10.0491 2.78355C11.9889 2.38162 13.9996 2.5879 15.8268 3.37632C17.6541 4.16473 19.2159 5.49986 20.3147 7.21287C21.4135 8.92588 22 10.9398 22 13.0001C21.9971 15.7618 20.9426 18.4096 19.0679 20.3624C17.1931 22.3153 14.6513 23.4137 12 23.4167Z" fill="#E65248"/>
<path d="M12 5.7084C11.7348 5.7084 11.4804 5.81814 11.2929 6.01349C11.1054 6.20884 11 6.4738 11 6.75006V15.0834C11 15.3597 11.1054 15.6246 11.2929 15.82C11.4804 16.0153 11.7348 16.1251 12 16.1251C12.2652 16.1251 12.5196 16.0153 12.7071 15.82C12.8946 15.6246 13 15.3597 13 15.0834V6.75006C13 6.4738 12.8946 6.20884 12.7071 6.01349C12.5196 5.81814 12.2652 5.7084 12 5.7084Z" fill="#E65248"/>
<path d="M13 19.2501C13 18.6748 12.5523 18.2084 12 18.2084C11.4477 18.2084 11 18.6748 11 19.2501C11 19.8254 11.4477 20.2917 12 20.2917C12.5523 20.2917 13 19.8254 13 19.2501Z" fill="#E65248"/>
</g>
<defs>
<clipPath id="clip0_450_4276">
<rect width="24" height="25" fill="white" transform="translate(0 0.500061)"/>
</clipPath>
</defs>
</svg>
