<svg width="14" height="9"
  viewBox="0 0 14 9" fill="none" xmlns="http://www.w3.org/2000/svg">
  <path
    d="M13.71 1.05214C13.617 0.954508 13.5064 0.877014 13.3846 0.82413C13.2627 0.771246 13.132 0.744019 13 0.744019C12.868 0.744019 12.7373 0.771246 12.6154 0.82413C12.4936 0.877014 12.383 0.954508 12.29 1.05214L7.71 5.82297C7.61704 5.92061 7.50643 5.9981 7.38458 6.05099C7.26272 6.10387 7.13201 6.1311 7 6.1311C6.86799 6.1311 6.73728 6.10387 6.61542 6.05099C6.49356 5.9981 6.38296 5.92061 6.29 5.82297L1.71 1.05214C1.61704 0.954508 1.50644 0.877014 1.38458 0.82413C1.26272 0.771246 1.13201 0.744019 0.999999 0.744019C0.867987 0.744019 0.737282 0.771246 0.615422 0.82413C0.493563 0.877014 0.382962 0.954508 0.289999 1.05214C0.103748 1.24731 -0.000793457 1.51132 -0.000793457 1.78652C-0.000793457 2.06171 0.103748 2.32572 0.289999 2.52089L4.88 7.30214C5.4425 7.88735 6.205 8.21606 7 8.21606C7.795 8.21606 8.5575 7.88735 9.12 7.30214L13.71 2.52089C13.8962 2.32572 14.0008 2.06171 14.0008 1.78652C14.0008 1.51132 13.8962 1.24731 13.71 1.05214Z"
    fill="#666666" />
</svg>
