<svg width="18" height="18" viewBox="0 0 18 18" fill="none" xmlns="http://www.w3.org/2000/svg">
<g clip-path="url(#clip0_459_2708)">
<path d="M16.5 10.5533L18 9.05325V16.3905C18.0187 17.2582 17.2515 18.0188 16.389 18.0023C16.077 18.0023 15.7658 17.9115 15.4965 17.7323L12.5235 15.7493H8.25075C6.183 15.7493 4.50075 14.067 4.50075 11.9992C4.50075 11.5845 4.83675 11.2492 5.25075 11.2492C5.66475 11.2492 6.00075 11.5845 6.00075 11.9992C6.00075 13.2397 7.01025 14.2493 8.25075 14.2493H12.7507C12.8985 14.2493 13.044 14.2935 13.167 14.3752L16.3283 16.4835C16.3425 16.4925 16.3822 16.5218 16.4422 16.4888C16.5007 16.4573 16.5007 16.407 16.5007 16.3905V10.5525L16.5 10.5533ZM11.6047 4.5H11.9467L13.098 3.34875C13.2308 3.216 13.3785 3.10875 13.5248 3H11.604C11.196 3 10.863 3.3285 10.8608 3.73575V3.75525C10.8585 4.16625 11.193 4.49925 11.604 4.49925L11.6047 4.5ZM4.875 9.75H1.875C0.83925 9.75 0 8.91075 0 7.875V4.875C0 2.1825 2.1825 0 4.875 0C7.5675 0 9.75 2.1825 9.75 4.875C9.75 7.5675 7.5675 9.75 4.875 9.75ZM4.125 3.75C4.125 3.528 4.2225 3.318 4.3935 3.17475C4.566 3.02925 4.78875 2.9715 5.0175 3.012C5.31075 3.06375 5.56125 3.3135 5.613 3.60675C5.68275 4.00575 5.454 4.28775 5.2365 4.407C4.734 4.68375 4.3665 5.07 4.32675 5.11275C4.0455 5.415 4.062 5.88675 4.36275 6.1695C4.50675 6.30525 4.69125 6.37275 4.87575 6.37275C5.07525 6.37275 5.27475 6.294 5.4225 6.138C5.42475 6.13575 5.664 5.8845 5.961 5.721C6.804 5.256 7.25775 4.302 7.0905 3.34725C6.93075 2.439 6.1845 1.6935 5.277 1.5345C4.6125 1.4175 3.939 1.59675 3.429 2.02575C2.91825 2.45475 2.62575 3.0825 2.62575 3.74925C2.62575 4.16325 2.96175 4.49925 3.37575 4.49925C3.78975 4.49925 4.12575 4.16325 4.12575 3.74925L4.125 3.75ZM4.875 8.25C5.289 8.25 5.625 7.914 5.625 7.5C5.625 7.086 5.289 6.75 4.875 6.75C4.461 6.75 4.125 7.086 4.125 7.5C4.125 7.914 4.461 8.25 4.875 8.25ZM9 10.8105C9 10.0095 9.312 9.25575 9.879 8.6895L14.1593 4.40925C15.0367 3.53175 16.4633 3.53175 17.3407 4.40925C18.2138 5.247 18.2138 6.75375 17.3407 7.5915L13.0605 11.8717C12.4935 12.4388 11.7405 12.7507 10.9395 12.7507H9.75C9.336 12.7507 9 12.4155 9 12.0007V10.8112V10.8105ZM10.5 11.25H10.9395C11.34 11.25 11.7165 11.094 12 10.8105L16.2803 6.53025C16.5713 6.25125 16.5713 5.74875 16.2803 5.46975C15.987 5.1765 15.513 5.17725 15.2197 5.46975L10.9395 9.75C10.656 10.0335 10.5 10.41 10.5 10.8105V11.25Z" fill="#231F20"/>
</g>
<defs>
<clipPath id="clip0_459_2708">
<rect width="18" height="18" fill="white"/>
</clipPath>
</defs>
</svg>
