<svg width="16" height="17" viewBox="0 0 16 17" fill="none" xmlns="http://www.w3.org/2000/svg">
<g clip-path="url(#clip0_1338_29243)">
<path d="M4.66667 0.5H2.66667C1.95942 0.5 1.28115 0.780952 0.781049 1.28105C0.280952 1.78115 0 2.45942 0 3.16667L0 5.16667C0 5.87391 0.280952 6.55219 0.781049 7.05229C1.28115 7.55238 1.95942 7.83333 2.66667 7.83333H4.66667C5.37391 7.83333 6.05219 7.55238 6.55229 7.05229C7.05238 6.55219 7.33333 5.87391 7.33333 5.16667V3.16667C7.33333 2.45942 7.05238 1.78115 6.55229 1.28105C6.05219 0.780952 5.37391 0.5 4.66667 0.5ZM6 5.16667C6 5.52029 5.85952 5.85943 5.60948 6.10948C5.35943 6.35952 5.02029 6.5 4.66667 6.5H2.66667C2.31304 6.5 1.97391 6.35952 1.72386 6.10948C1.47381 5.85943 1.33333 5.52029 1.33333 5.16667V3.16667C1.33333 2.81304 1.47381 2.47391 1.72386 2.22386C1.97391 1.97381 2.31304 1.83333 2.66667 1.83333H4.66667C5.02029 1.83333 5.35943 1.97381 5.60948 2.22386C5.85952 2.47391 6 2.81304 6 3.16667V5.16667Z" fill="#f7f7f7"/>
<path d="M13.3337 0.5H11.3337C10.6264 0.5 9.94814 0.780952 9.44804 1.28105C8.94794 1.78115 8.66699 2.45942 8.66699 3.16667V5.16667C8.66699 5.87391 8.94794 6.55219 9.44804 7.05229C9.94814 7.55238 10.6264 7.83333 11.3337 7.83333H13.3337C14.0409 7.83333 14.7192 7.55238 15.2193 7.05229C15.7194 6.55219 16.0003 5.87391 16.0003 5.16667V3.16667C16.0003 2.45942 15.7194 1.78115 15.2193 1.28105C14.7192 0.780952 14.0409 0.5 13.3337 0.5ZM14.667 5.16667C14.667 5.52029 14.5265 5.85943 14.2765 6.10948C14.0264 6.35952 13.6873 6.5 13.3337 6.5H11.3337C10.98 6.5 10.6409 6.35952 10.3908 6.10948C10.1408 5.85943 10.0003 5.52029 10.0003 5.16667V3.16667C10.0003 2.81304 10.1408 2.47391 10.3908 2.22386C10.6409 1.97381 10.98 1.83333 11.3337 1.83333H13.3337C13.6873 1.83333 14.0264 1.97381 14.2765 2.22386C14.5265 2.47391 14.667 2.81304 14.667 3.16667V5.16667Z" fill="#f7f7f7"/>
<path d="M4.66667 9.16663H2.66667C1.95942 9.16663 1.28115 9.44758 0.781049 9.94767C0.280952 10.4478 0 11.126 0 11.8333L0 13.8333C0 14.5405 0.280952 15.2188 0.781049 15.7189C1.28115 16.219 1.95942 16.5 2.66667 16.5H4.66667C5.37391 16.5 6.05219 16.219 6.55229 15.7189C7.05238 15.2188 7.33333 14.5405 7.33333 13.8333V11.8333C7.33333 11.126 7.05238 10.4478 6.55229 9.94767C6.05219 9.44758 5.37391 9.16663 4.66667 9.16663ZM6 13.8333C6 14.1869 5.85952 14.5261 5.60948 14.7761C5.35943 15.0261 5.02029 15.1666 4.66667 15.1666H2.66667C2.31304 15.1666 1.97391 15.0261 1.72386 14.7761C1.47381 14.5261 1.33333 14.1869 1.33333 13.8333V11.8333C1.33333 11.4797 1.47381 11.1405 1.72386 10.8905C1.97391 10.6404 2.31304 10.5 2.66667 10.5H4.66667C5.02029 10.5 5.35943 10.6404 5.60948 10.8905C5.85952 11.1405 6 11.4797 6 11.8333V13.8333Z" fill="#f7f7f7"/>
<path d="M13.3337 9.16663H11.3337C10.6264 9.16663 9.94814 9.44758 9.44804 9.94767C8.94794 10.4478 8.66699 11.126 8.66699 11.8333V13.8333C8.66699 14.5405 8.94794 15.2188 9.44804 15.7189C9.94814 16.219 10.6264 16.5 11.3337 16.5H13.3337C14.0409 16.5 14.7192 16.219 15.2193 15.7189C15.7194 15.2188 16.0003 14.5405 16.0003 13.8333V11.8333C16.0003 11.126 15.7194 10.4478 15.2193 9.94767C14.7192 9.44758 14.0409 9.16663 13.3337 9.16663ZM14.667 13.8333C14.667 14.1869 14.5265 14.5261 14.2765 14.7761C14.0264 15.0261 13.6873 15.1666 13.3337 15.1666H11.3337C10.98 15.1666 10.6409 15.0261 10.3908 14.7761C10.1408 14.5261 10.0003 14.1869 10.0003 13.8333V11.8333C10.0003 11.4797 10.1408 11.1405 10.3908 10.8905C10.6409 10.6404 10.98 10.5 11.3337 10.5H13.3337C13.6873 10.5 14.0264 10.6404 14.2765 10.8905C14.5265 11.1405 14.667 11.4797 14.667 11.8333V13.8333Z" fill="#f7f7f7"/>
</g>
<defs>
<clipPath id="clip0_1338_29243">
<rect width="16" height="16" fill="white" transform="translate(0 0.5)"/>
</clipPath>
</defs>
</svg>
