<svg width="16" height="16" viewBox="0 0 16 16" fill="none" xmlns="http://www.w3.org/2000/svg">
<g clip-path="url(#clip0_2064_24533)">
<path d="M11.3333 0C8.76 0 6.66667 2.09333 6.66667 4.66667C6.66667 7.24 8.76 9.33333 11.3333 9.33333C13.9067 9.33333 16 7.24 16 4.66667C16 2.09333 13.9067 0 11.3333 0ZM11.3333 8C9.49533 8 8 6.50467 8 4.66667C8 2.82867 9.49533 1.33333 11.3333 1.33333C13.1713 1.33333 14.6667 2.82867 14.6667 4.66667C14.6667 6.50467 13.1713 8 11.3333 8ZM13.138 3.80467L12.276 4.66667L13.138 5.52867C13.3987 5.78933 13.3987 6.21067 13.138 6.47133C13.008 6.60133 12.8373 6.66667 12.6667 6.66667C12.496 6.66667 12.3253 6.60133 12.1953 6.47133L11.3333 5.60933L10.4713 6.47133C10.3413 6.60133 10.1707 6.66667 10 6.66667C9.82933 6.66667 9.65867 6.60133 9.52867 6.47133C9.268 6.21067 9.268 5.78933 9.52867 5.52867L10.3907 4.66667L9.52867 3.80467C9.268 3.544 9.268 3.12267 9.52867 2.862C9.78933 2.60133 10.2107 2.60133 10.4713 2.862L11.3333 3.724L12.1953 2.862C12.456 2.60133 12.8773 2.60133 13.138 2.862C13.3987 3.12267 13.3987 3.544 13.138 3.80467ZM9.33333 10.6667V15.3333C9.33333 15.586 9.19067 15.8167 8.96467 15.93C8.87 15.9773 8.768 16 8.66667 16C8.52533 16 8.38467 15.9547 8.26667 15.8667L5.6 13.8667C5.432 13.7413 5.33333 13.5433 5.33333 13.3333V9.58667L0.656 4.32533C0.232667 3.84867 0 3.236 0 2.59867C0 1.166 1.166 0 2.59867 0L6 0C6.368 0 6.66667 0.298667 6.66667 0.666667C6.66667 1.03467 6.368 1.33333 6 1.33333L2.59867 1.33333C1.90133 1.33333 1.33333 1.90133 1.33333 2.59867C1.33333 2.90933 1.44667 3.208 1.65267 3.44L6.498 8.89067C6.60667 9.01267 6.666 9.17 6.666 9.334V13.0007L7.99933 14.0007L7.99933 10.6673C7.99933 10.2993 8.298 10.0007 8.666 10.0007C9.034 10.0007 9.33267 10.2993 9.33267 10.6673L9.33333 10.6667Z" fill="#092D47"/>
</g>
<defs>
<clipPath id="clip0_2064_24533">
<rect width="16" height="16" fill="white"/>
</clipPath>
</defs>
</svg>
