<svg width="18" height="18" viewBox="0 0 18 18" fill="none" xmlns="http://www.w3.org/2000/svg">
<g clip-path="url(#clip0_459_2696)">
<path d="M10.9058 4.104C11.8028 3.339 12.75 2.193 12.75 0.75V0H5.25V0.75C5.25 2.193 6.19725 3.33825 7.09425 4.104C3.5655 5.36175 0.75 9.843 0.75 13.5C0.75 15.9818 2.76825 18 5.25 18H12.75C15.2318 18 17.25 15.9818 17.25 13.5C17.25 9.843 14.4345 5.36175 10.9058 4.104ZM6.90525 1.5H11.0925C10.7017 2.442 9.675 3.2325 9.00525 3.639C8.44125 3.294 7.317 2.505 6.906 1.5H6.90525ZM12.75 16.5H5.25C3.5955 16.5 2.25 15.1545 2.25 13.5C2.25 9.62925 5.6925 5.26275 8.9985 5.26275C12.3045 5.26275 15.75 9.63 15.75 13.5C15.75 15.1545 14.4045 16.5 12.75 16.5ZM7.5 9.75C7.5 10.0335 7.70325 10.2735 7.983 10.32L10.2645 10.7003C11.2703 10.8675 12.0007 11.73 12.0007 12.75C12.0007 13.9905 10.9913 15 9.75075 15V15.75H8.25075V15C7.01025 15 6.00075 13.9905 6.00075 12.75H7.50075C7.50075 13.1632 7.8375 13.5 8.25075 13.5H9.75075C10.164 13.5 10.5008 13.1632 10.5008 12.75C10.5008 12.4665 10.2975 12.2265 10.0177 12.18L7.73625 11.7997C6.7305 11.6325 6 10.77 6 9.75C6 8.5095 7.0095 7.5 8.25 7.5V6.75H9.75V7.5C10.9905 7.5 12 8.5095 12 9.75H10.5C10.5 9.33675 10.1632 9 9.75 9H8.25C7.83675 9 7.5 9.33675 7.5 9.75Z" fill="#231F20"/>
</g>
<defs>
<clipPath id="clip0_459_2696">
<rect width="18" height="18" fill="white"/>
</clipPath>
</defs>
</svg>
