<svg width="20" height="21" viewBox="0 0 20 21" fill="none" xmlns="http://www.w3.org/2000/svg">
<g clip-path="url(#clip0_1376_35774)">
<path d="M11.5379 14.8891L8.81955 17.6075C8.03032 18.3756 6.97039 18.8021 5.86909 18.7947C4.76779 18.7874 3.71367 18.3467 2.93481 17.568C2.15594 16.7894 1.71496 15.7354 1.70727 14.6341C1.69958 13.5328 2.1258 12.4727 2.89372 11.6833L5.61205 8.96246C5.76831 8.8061 5.85605 8.59406 5.85597 8.373C5.85589 8.15194 5.768 7.93997 5.61163 7.78371C5.45527 7.62746 5.24323 7.53972 5.02217 7.53979C4.80111 7.53987 4.58914 7.62776 4.43288 7.78413L1.71538 10.505C0.617277 11.6036 0.000586036 13.0935 0.000976748 14.6469C0.00136746 16.2002 0.618807 17.6898 1.71747 18.7879C2.81613 19.886 4.30601 20.5027 5.85936 20.5023C7.4127 20.5019 8.90228 19.8845 10.0004 18.7858L12.7187 16.0675C12.8705 15.9103 12.9545 15.6998 12.9526 15.4813C12.9507 15.2628 12.8631 15.0538 12.7086 14.8993C12.5541 14.7448 12.345 14.6571 12.1266 14.6552C11.9081 14.6533 11.6976 14.7373 11.5404 14.8891H11.5379Z" fill="#666666"/>
<path d="M18.2867 2.21752C17.7445 1.67153 17.0992 1.23859 16.3884 0.943767C15.6776 0.648948 14.9154 0.49812 14.1459 0.500021C13.3768 0.497977 12.6149 0.648419 11.9043 0.942647C11.1937 1.23687 10.5484 1.66905 10.0059 2.21419L7.2834 4.93335C7.12703 5.08961 7.03914 5.30158 7.03906 5.52264C7.03898 5.7437 7.12672 5.95574 7.28298 6.1121C7.43924 6.26847 7.65121 6.35636 7.87227 6.35644C8.09333 6.35652 8.30536 6.26878 8.46173 6.11252L11.1826 3.39419C11.5705 3.00389 12.0321 2.69444 12.5404 2.48374C13.0488 2.27303 13.5939 2.16527 14.1442 2.16669C14.9728 2.16696 15.7827 2.41288 16.4715 2.87335C17.1603 3.33383 17.6971 3.98818 18.0141 4.7537C18.3311 5.51922 18.414 6.36154 18.2523 7.17417C18.0907 7.9868 17.6917 8.73326 17.1059 9.31919L14.3876 12.0375C14.2312 12.1939 14.1434 12.406 14.1434 12.6271C14.1434 12.8482 14.2312 13.0603 14.3876 13.2167C14.5439 13.3731 14.756 13.4609 14.9771 13.4609C15.1983 13.4609 15.4104 13.3731 15.5667 13.2167L18.2851 10.5C19.3818 9.40093 19.9978 7.91177 19.9981 6.35912C19.9985 4.80646 19.383 3.31705 18.2867 2.21752Z" fill="#666666"/>
<path d="M11.9107 7.41081L6.91066 12.4108C6.83107 12.4877 6.76758 12.5796 6.72391 12.6813C6.68023 12.783 6.65724 12.8923 6.65628 13.003C6.65532 13.1136 6.6764 13.2234 6.71831 13.3258C6.76021 13.4282 6.82208 13.5212 6.90033 13.5995C6.97857 13.6777 7.07161 13.7396 7.17403 13.7815C7.27644 13.8234 7.38617 13.8445 7.49682 13.8435C7.60747 13.8426 7.71682 13.8196 7.81849 13.7759C7.92016 13.7322 8.01212 13.6687 8.08899 13.5891L13.089 8.58914C13.2408 8.43197 13.3248 8.22147 13.3229 8.00297C13.321 7.78447 13.2333 7.57546 13.0788 7.42096C12.9243 7.26645 12.7153 7.17881 12.4968 7.17691C12.2783 7.17501 12.0678 7.25901 11.9107 7.41081Z" fill="#666666"/>
</g>
<defs>
<clipPath id="clip0_1376_35774">
<rect width="20" height="20" fill="white" transform="translate(0 0.5)"/>
</clipPath>
</defs>
</svg>
