<svg width="88" height="88" viewBox="0 0 88 88" fill="none" xmlns="http://www.w3.org/2000/svg">
<path d="M69.6667 30.888V25.6667C69.6667 18.8594 66.9625 12.331 62.1491 7.51759C57.3357 2.70416 50.8073 0 44 0C37.1928 0 30.6644 2.70416 25.851 7.51759C21.0375 12.331 18.3334 18.8594 18.3334 25.6667V30.888C15.0677 32.3133 12.2881 34.6593 10.3345 37.6391C8.38096 40.619 7.33806 44.1035 7.33337 47.6667V69.6667C7.3392 74.5272 9.27261 79.187 12.7095 82.6239C16.1464 86.0608 20.8062 87.9942 25.6667 88H62.3334C67.1939 87.9942 71.8537 86.0608 75.2906 82.6239C78.7275 79.187 80.6609 74.5272 80.6667 69.6667V47.6667C80.662 44.1035 79.6191 40.619 77.6655 37.6391C75.712 34.6593 72.9324 32.3133 69.6667 30.888ZM25.6667 25.6667C25.6667 20.8044 27.5982 16.1412 31.0364 12.703C34.4746 9.26488 39.1377 7.33333 44 7.33333C48.8623 7.33333 53.5255 9.26488 56.9637 12.703C60.4018 16.1412 62.3334 20.8044 62.3334 25.6667V29.3333H25.6667V25.6667ZM73.3334 69.6667C73.3334 72.5841 72.1744 75.3819 70.1115 77.4448C68.0486 79.5077 65.2508 80.6667 62.3334 80.6667H25.6667C22.7493 80.6667 19.9514 79.5077 17.8885 77.4448C15.8256 75.3819 14.6667 72.5841 14.6667 69.6667V47.6667C14.6667 44.7493 15.8256 41.9514 17.8885 39.8885C19.9514 37.8256 22.7493 36.6667 25.6667 36.6667H62.3334C65.2508 36.6667 68.0486 37.8256 70.1115 39.8885C72.1744 41.9514 73.3334 44.7493 73.3334 47.6667V69.6667Z" fill="#F7F7F7"/>
<path d="M44 51.3334C43.0276 51.3334 42.095 51.7197 41.4073 52.4073C40.7197 53.095 40.3334 54.0276 40.3334 55V62.3334C40.3334 63.3058 40.7197 64.2385 41.4073 64.9261C42.095 65.6137 43.0276 66 44 66C44.9725 66 45.9051 65.6137 46.5928 64.9261C47.2804 64.2385 47.6667 63.3058 47.6667 62.3334V55C47.6667 54.0276 47.2804 53.095 46.5928 52.4073C45.9051 51.7197 44.9725 51.3334 44 51.3334Z" fill="#F7F7F7"/>
</svg>
