<svg width="18" height="20" viewBox="0 0 18 20" fill="none" xmlns="http://www.w3.org/2000/svg">
<path d="M14.8334 7.02V5.83333C14.8334 4.28624 14.2188 2.80251 13.1249 1.70854C12.0309 0.614582 10.5472 0 9.00008 0C7.45298 0 5.96925 0.614582 4.87529 1.70854C3.78133 2.80251 3.16675 4.28624 3.16675 5.83333V7.02C2.42455 7.34392 1.79283 7.8771 1.34883 8.55434C0.904836 9.23158 0.667813 10.0235 0.666748 10.8333V15.8333C0.668071 16.938 1.10748 17.997 1.8886 18.7782C2.66971 19.5593 3.72875 19.9987 4.83341 20H13.1667C14.2714 19.9987 15.3305 19.5593 16.1116 18.7782C16.8927 17.997 17.3321 16.938 17.3334 15.8333V10.8333C17.3323 10.0235 17.0953 9.23158 16.6513 8.55434C16.2073 7.8771 15.5756 7.34392 14.8334 7.02ZM4.83341 5.83333C4.83341 4.72826 5.2724 3.66846 6.0538 2.88705C6.8352 2.10565 7.89501 1.66667 9.00008 1.66667C10.1052 1.66667 11.165 2.10565 11.9464 2.88705C12.7278 3.66846 13.1667 4.72826 13.1667 5.83333V6.66667H4.83341V5.83333ZM15.6667 15.8333C15.6667 16.4964 15.4034 17.1323 14.9345 17.6011C14.4657 18.0699 13.8298 18.3333 13.1667 18.3333H4.83341C4.17037 18.3333 3.53449 18.0699 3.06565 17.6011C2.59681 17.1323 2.33341 16.4964 2.33341 15.8333V10.8333C2.33341 10.1703 2.59681 9.53441 3.06565 9.06557C3.53449 8.59672 4.17037 8.33333 4.83341 8.33333H13.1667C13.8298 8.33333 14.4657 8.59672 14.9345 9.06557C15.4034 9.53441 15.6667 10.1703 15.6667 10.8333V15.8333Z" fill="#666666"/>
</svg>
