<svg width="16" height="17" viewBox="0 0 16 17" fill="none" xmlns="http://www.w3.org/2000/svg">
<g clip-path="url(#clip0_1376_25939)">
<path d="M15.3333 9.16667H8.66667V15.8333C8.66667 16.0101 8.59643 16.1797 8.47141 16.3047C8.34638 16.4298 8.17681 16.5 8 16.5C7.82319 16.5 7.65362 16.4298 7.5286 16.3047C7.40357 16.1797 7.33333 16.0101 7.33333 15.8333L7.33333 9.16667H0.666667C0.489856 9.16667 0.320286 9.09643 0.195262 8.9714C0.0702379 8.84638 0 8.67681 0 8.5C0 8.32319 0.0702379 8.15362 0.195262 8.02859C0.320286 7.90357 0.489856 7.83333 0.666667 7.83333H7.33333V1.16667C7.33333 0.989855 7.40357 0.820286 7.5286 0.695261C7.65362 0.570237 7.82319 0.5 8 0.5C8.17681 0.5 8.34638 0.570237 8.47141 0.695261C8.59643 0.820286 8.66667 0.989855 8.66667 1.16667L8.66667 7.83333L15.3333 7.83333C15.5101 7.83333 15.6797 7.90357 15.8047 8.02859C15.9298 8.15362 16 8.32319 16 8.5C16 8.67681 15.9298 8.84638 15.8047 8.9714C15.6797 9.09643 15.5101 9.16667 15.3333 9.16667Z" fill="#F7F7F7"/>
</g>
<defs>
<clipPath id="clip0_1376_25939">
<rect width="16" height="16" fill="white" transform="matrix(1 0 0 -1 0 16.5)"/>
</clipPath>
</defs>
</svg>
