<svg width="18" height="18" viewBox="0 0 18 18" fill="none" xmlns="http://www.w3.org/2000/svg">
<g clip-path="url(#clip0_459_2702)">
<path d="M2.25 13.5V17.25C2.25 17.664 1.914 18 1.5 18C1.086 18 0.75 17.664 0.75 17.25V13.5C0.75 13.086 1.086 12.75 1.5 12.75C1.914 12.75 2.25 13.086 2.25 13.5ZM16.5 6C16.9147 6 17.25 5.664 17.25 5.25V0.75C17.25 0.336 16.9147 0 16.5 0C16.0853 0 15.75 0.336 15.75 0.75V5.25C15.75 5.664 16.0853 6 16.5 6ZM5.68875 1.7565C6.38475 2.058 6.942 2.6145 7.2435 3.31125C7.35975 3.5805 7.629 3.75 7.92225 3.75C8.46975 3.75 8.83275 3.183 8.61075 2.68275C8.1585 1.66275 7.338 0.84225 6.318 0.38925C5.817 0.16725 5.25 0.53025 5.25 1.07775C5.25 1.371 5.4195 1.6395 5.68875 1.7565ZM3.75 1.077C3.75 0.53175 3.18675 0.16575 2.68875 0.3855C1.107 1.08375 0 2.66325 0 4.5C0 5.07675 0.11025 5.62725 0.309 6.1335C0.5085 6.63975 1.1625 6.77625 1.54725 6.39225C1.761 6.1785 1.82175 5.85975 1.70925 5.57925C1.57575 5.24475 1.49925 4.8825 1.49925 4.50075C1.49925 3.2715 2.24175 2.22375 3.30075 1.76175C3.573 1.64325 3.74925 1.3755 3.74925 1.0785L3.75 1.077ZM7.923 5.24925C7.626 5.24925 7.35825 5.4255 7.239 5.69775C6.777 6.75675 5.72925 7.49925 4.5 7.49925C4.1175 7.49925 3.75525 7.42275 3.4215 7.28925C3.141 7.1775 2.82225 7.2375 2.60925 7.4505C2.2245 7.83525 2.36175 8.49 2.868 8.6895C3.37425 8.889 3.92475 8.9985 4.5015 8.9985C6.33825 8.9985 7.91775 7.8915 8.61525 6.30975C8.835 5.811 8.469 5.2485 7.92375 5.2485L7.923 5.24925ZM5.25 10.4992C4.836 10.4992 4.5 10.8352 4.5 11.2492V17.2493C4.5 17.6632 4.836 17.9993 5.25 17.9993C5.664 17.9993 6 17.6632 6 17.2493V11.25C6 10.836 5.664 10.5 5.25 10.5V10.4992ZM9 8.62425C8.586 8.62425 8.25 8.96025 8.25 9.37425V17.2493C8.25 17.6632 8.586 17.9993 9 17.9993C9.414 17.9993 9.75 17.6632 9.75 17.2493V9.375C9.75 8.961 9.414 8.625 9 8.625V8.62425ZM12.75 6.74925C13.1648 6.74925 13.5 6.41325 13.5 5.99925V3.74925C13.5 3.33525 13.1648 2.99925 12.75 2.99925C12.3352 2.99925 12 3.33525 12 3.74925V5.99925C12 6.41325 12.3352 6.74925 12.75 6.74925ZM16.263 12.1995L13.9823 11.8193C13.7025 11.7727 13.4993 11.5328 13.4993 11.2492C13.4993 10.836 13.8353 10.4992 14.2493 10.4992H15.9495C16.2165 10.4992 16.4655 10.6432 16.5998 10.8742C16.806 11.2335 17.2635 11.3558 17.6243 11.148C17.9827 10.9403 18.1058 10.482 17.8973 10.1235C17.4967 9.42975 16.7498 8.99925 15.9487 8.99925H15.7477V8.24925C15.7477 7.83525 15.4125 7.49925 14.9977 7.49925C14.583 7.49925 14.2477 7.83525 14.2477 8.24925V8.99925C13.0072 8.99925 11.9977 10.0087 11.9977 11.2492C11.9977 12.2692 12.7283 13.1318 13.734 13.299L16.0148 13.6793C16.2945 13.7257 16.4977 13.9658 16.4977 14.2493C16.4977 14.6625 16.1617 14.9993 15.7477 14.9993H14.0475C13.7805 14.9993 13.5315 14.8553 13.3973 14.6243C13.191 14.265 12.7327 14.142 12.3727 14.3505C12.0142 14.5583 11.8912 15.0165 12.0997 15.375C12.5002 16.0688 13.2473 16.4993 14.0483 16.4993H14.2493V17.2493C14.2493 17.6632 14.5845 17.9993 14.9993 17.9993C15.414 17.9993 15.7493 17.6632 15.7493 17.2493V16.4993C16.9897 16.4993 17.9993 15.5265 17.9993 14.2493C17.9993 13.2292 17.2687 12.3668 16.263 12.1995Z" fill="#231F20"/>
</g>
<defs>
<clipPath id="clip0_459_2702">
<rect width="18" height="18" fill="white"/>
</clipPath>
</defs>
</svg>
