<svg width="18" height="18" viewBox="0 0 18 18" fill="none" xmlns="http://www.w3.org/2000/svg">
<path d="M16.5623 4.92288L11.3123 0.809885C9.951 -0.256615 8.04825 -0.256615 6.687 0.809885L1.43775 4.92288C0.52425 5.63764 0 6.71389 0 7.87489V14.2499C0 16.3176 1.68225 17.9999 3.75 17.9999H14.25C16.3177 17.9999 18 16.3176 18 14.2499V7.87489C18 6.71389 17.4757 5.63839 16.5623 4.92288ZM16.5 14.2499C16.5 15.4904 15.4905 16.4999 14.25 16.4999H3.75C2.5095 16.4999 1.5 15.4904 1.5 14.2499V7.87489C1.5 7.17814 1.81425 6.53313 2.3625 6.10414L7.6125 1.99113C8.02125 1.67088 8.51025 1.51113 9 1.51113C9.48975 1.51113 9.9795 1.67088 10.3875 1.99113L15.6375 6.10414C16.1858 6.53313 16.5 7.17888 16.5 7.87489V14.2499ZM10.125 13.1249C10.125 13.7459 9.621 14.2499 9 14.2499C8.379 14.2499 7.875 13.7459 7.875 13.1249C7.875 12.5039 8.379 11.9999 9 11.9999C9.621 11.9999 10.125 12.5039 10.125 13.1249ZM11.652 10.0986C11.9453 10.3919 11.9453 10.8659 11.652 11.1591C11.5058 11.3054 11.3138 11.3789 11.1217 11.3789C10.9298 11.3789 10.7378 11.3054 10.5915 11.1591C9.714 10.2816 8.28675 10.2816 7.40925 11.1591C7.116 11.4524 6.642 11.4524 6.34875 11.1591C6.0555 10.8659 6.0555 10.3919 6.34875 10.0986C7.8105 8.63689 10.1903 8.63689 11.652 10.0986ZM13.773 7.97688C14.0662 8.27013 14.0662 8.74414 13.773 9.03739C13.6267 9.18364 13.4347 9.25714 13.2428 9.25714C13.0507 9.25714 12.8588 9.18364 12.7125 9.03739C10.6658 6.99064 7.335 6.99064 5.28825 9.03739C4.995 9.33064 4.521 9.33064 4.22775 9.03739C3.9345 8.74414 3.9345 8.27013 4.22775 7.97688C6.8595 5.34438 11.1413 5.34438 13.773 7.97688Z" fill="#231F20"/>
</svg>
