<svg width="18" height="18" viewBox="0 0 18 18" fill="none" xmlns="http://www.w3.org/2000/svg">
<path d="M16.5623 4.92301L11.3123 0.810007C9.951 -0.256493 8.04825 -0.256493 6.687 0.810007L1.43775 4.92301C0.52425 5.63776 0 6.71401 0 7.87501V14.25C0 16.3178 1.68225 18 3.75 18H14.25C16.3177 18 18 16.3178 18 14.25V7.87501C18 6.71401 17.4757 5.63851 16.5623 4.92301ZM16.5 14.25C16.5 15.4905 15.4905 16.5 14.25 16.5H3.75C2.5095 16.5 1.5 15.4905 1.5 14.25V7.87501C1.5 7.17826 1.81425 6.53326 2.3625 6.10426L7.6125 1.99126C8.02125 1.67101 8.51025 1.51126 9 1.51126C9.48975 1.51126 9.9795 1.67101 10.3875 1.99126L15.6375 6.10426C16.1858 6.53326 16.5 7.17901 16.5 7.87501V14.25ZM10.125 13.125C10.125 13.746 9.621 14.25 9 14.25C8.379 14.25 7.875 13.746 7.875 13.125C7.875 12.504 8.379 12 9 12C9.621 12 10.125 12.504 10.125 13.125ZM11.652 10.0988C11.9453 10.392 11.9453 10.866 11.652 11.1593C11.5058 11.3055 11.3138 11.379 11.1217 11.379C10.9298 11.379 10.7378 11.3055 10.5915 11.1593C9.714 10.2818 8.28675 10.2818 7.40925 11.1593C7.116 11.4525 6.642 11.4525 6.34875 11.1593C6.0555 10.866 6.0555 10.392 6.34875 10.0988C7.8105 8.63701 10.1903 8.63701 11.652 10.0988ZM13.773 7.97701C14.0662 8.27026 14.0662 8.74426 13.773 9.03751C13.6267 9.18376 13.4347 9.25726 13.2428 9.25726C13.0507 9.25726 12.8588 9.18376 12.7125 9.03751C10.6658 6.99076 7.335 6.99076 5.28825 9.03751C4.995 9.33076 4.521 9.33076 4.22775 9.03751C3.9345 8.74426 3.9345 8.27026 4.22775 7.97701C6.8595 5.34451 11.1413 5.34451 13.773 7.97701Z" fill="#F7F7F7"/>
</svg>
