<svg width="104" height="58" viewBox="0 0 104 58" fill="none" xmlns="http://www.w3.org/2000/svg">
<path d="M40.6088 1.22984C42.9651 1.13854 45.3213 1.21373 47.6776 1.19224C50.0013 1.1278 52.3034 2.29317 53.6467 4.16743C54.5621 5.38113 54.9901 6.89558 55.0388 8.39928C52.9263 8.39391 50.8355 9.34984 49.4867 10.9609C48.3871 12.2284 47.8021 13.8985 47.7751 15.5634C45.3971 15.5526 43.0138 15.5956 40.6359 15.5472C40.5709 15.3217 40.4788 15.1015 40.4842 14.8706C40.4842 10.5528 40.4842 6.22965 40.4788 1.91187C40.4734 1.68095 40.5438 1.45002 40.6088 1.22984Z" fill="#E8504B"/>
<path d="M49.4868 10.961C50.8356 9.34985 52.9264 8.39392 55.0389 8.39929C57.3031 8.38318 59.5726 8.38855 61.8368 8.39392C62.0968 8.37244 62.3351 8.58188 62.281 8.84503C62.2918 13.426 62.2756 18.0069 62.2864 22.5878C62.1022 22.7113 61.9018 22.8348 61.6689 22.8026C59.4372 22.7973 57.211 22.8134 54.9847 22.7919C53.0943 22.765 51.2256 22.0078 49.8985 20.6706C48.5389 19.3387 47.7806 17.4537 47.7751 15.5634C47.8022 13.8985 48.3872 12.2284 49.4868 10.961Z" fill="#072945"/>
<path fill-rule="evenodd" clip-rule="evenodd" d="M71.5053 26.6156C73.4769 26.3041 75.4432 25.9873 77.4148 25.6704C77.4148 35.6486 77.4094 45.6267 77.4148 55.6049C75.3836 56.201 73.2765 56.4963 71.1694 56.6843C68.4936 56.9313 65.6661 56.8186 63.2286 55.5941C61.2298 54.6328 59.6644 52.8982 58.8519 50.8628C57.8498 48.4086 57.8011 45.6697 58.2182 43.0865C58.6623 40.4712 59.9515 37.8397 62.2915 36.4058C65.0323 34.7517 68.6128 34.698 71.5053 36.0084C71.5053 32.8774 71.4998 29.7465 71.5053 26.6156ZM64.7832 41.948C64.0032 43.4249 63.9707 45.1541 64.0682 46.7867C64.2307 48.4999 64.9348 50.358 66.5328 51.2387C68.0603 52.0228 69.8694 51.808 71.5107 51.5771C71.5053 48.0165 71.4998 44.4613 71.5107 40.9008C70.3082 40.208 68.8511 39.961 67.4753 40.1167C66.3432 40.2456 65.3032 40.9384 64.7832 41.948Z" fill="#072945"/>
<path d="M1.4624 30.3695C3.43407 30.0473 5.40574 29.7412 7.3774 29.4136C7.39365 31.4489 7.3774 33.4843 7.38282 35.5197C9.73907 35.5197 12.0899 35.5197 14.4407 35.5197C14.4407 37.1576 14.4462 38.7956 14.4407 40.4282C12.0899 40.4228 9.73365 40.4282 7.38282 40.4282C7.38282 42.8449 7.38282 45.2669 7.38282 47.6836C7.41532 48.7362 7.52365 49.8425 8.10324 50.7501C8.56907 51.4589 9.4574 51.7113 10.2645 51.7597C11.6782 51.8456 13.1028 51.5878 14.4462 51.1475C14.4407 52.7693 14.4407 54.3858 14.4462 56.0076C12.702 56.636 10.8387 56.8186 8.99699 56.7326C6.84115 56.6736 4.5499 55.9754 3.15782 54.2569C1.73324 52.5062 1.53824 50.1539 1.46782 47.9951C1.45699 42.1199 1.46782 36.2393 1.4624 30.3695Z" fill="#072945"/>
<path d="M25.7344 35.1921C28.1502 34.9719 30.6202 35.1545 32.9386 35.8687C32.6244 37.4906 32.2615 39.1017 31.9636 40.7235C30.9452 40.5248 29.9432 40.2348 28.9086 40.1596C27.6844 40.0308 26.4494 40.1489 25.2523 40.4121C25.2415 45.6911 25.2523 50.9756 25.2469 56.26C23.2807 56.26 21.309 56.26 19.3427 56.26C19.3427 49.7135 19.3373 43.1724 19.3427 36.6313C21.4227 35.9546 23.5461 35.3746 25.7344 35.1921Z" fill="#072945"/>
<path fill-rule="evenodd" clip-rule="evenodd" d="M39.4981 36.4648C42.1035 34.8322 45.4456 34.5852 48.349 35.5142C50.586 36.2285 52.4765 37.9363 53.3865 40.0898C54.4265 42.5226 54.5348 45.2507 54.2531 47.85C49.7735 47.85 45.294 47.85 40.8144 47.85C40.9498 49.1013 41.6973 50.2505 42.7915 50.8843C44.4923 51.8993 46.5723 51.8563 48.479 51.6791C49.8006 51.5233 51.1277 51.2602 52.3627 50.7607C52.6173 52.3504 52.8935 53.94 53.1535 55.5296C51.3931 56.2922 49.4648 56.5768 47.5581 56.7487C44.8335 56.985 41.941 56.7433 39.5306 55.3524C37.4669 54.23 35.934 52.2483 35.2948 50.0089C34.5527 47.4633 34.5419 44.703 35.2623 42.152C35.9665 39.8535 37.4181 37.7376 39.4981 36.4648ZM42.1685 40.8148C41.329 41.5935 41.0148 42.7374 40.8144 43.8222C43.4306 43.8168 46.0469 43.8222 48.6631 43.8168C48.6144 42.4205 48.0077 40.9383 46.7077 40.2563C45.2777 39.542 43.3494 39.6924 42.1685 40.8148Z" fill="#072945"/>
<path fill-rule="evenodd" clip-rule="evenodd" d="M90.6479 35.0955C93.3021 34.7142 96.135 35.2297 98.3396 36.7979C100.371 38.2103 101.709 40.4605 102.245 42.8395C102.727 44.9984 102.678 47.2647 102.142 49.4021C101.584 51.604 100.317 53.6716 98.4317 54.9927C96.0754 56.6951 92.9771 57.1355 90.1496 56.636C87.7608 56.2171 85.54 54.8745 84.1262 52.909C82.4579 50.6212 81.8458 47.7105 82.0354 44.9286C82.1762 42.5012 83.0483 40.0792 84.6787 38.2479C86.2008 36.5294 88.3729 35.4177 90.6479 35.0955ZM91.4875 40.1007C90.5071 40.2564 89.6242 40.8632 89.0933 41.6903C88.2537 42.9577 88.0371 44.5151 88.0587 46.0027C88.0587 47.5655 88.3729 49.2249 89.3858 50.4708C90.7887 52.2323 93.8817 52.2216 95.2467 50.4279C96.2921 49.0853 96.5358 47.3292 96.5304 45.6858C96.4871 44.0532 96.1783 42.281 94.9921 41.0619C94.1037 40.1436 92.7171 39.8751 91.4875 40.1007Z" fill="#072945"/>
</svg>
