<svg width="24" height="24" viewBox="0 0 24 24" fill="none" xmlns="http://www.w3.org/2000/svg">
<g clip-path="url(#clip0_1376_32006)">
<path d="M8.84013 14.354L11.0151 10.73L3.01313 8.062C2.43013 7.868 1.78913 8.104 1.47313 8.632L0.314126 10.563C-0.352874 11.675 0.181126 13.118 1.41113 13.528L6.49213 15.222C7.38113 15.518 8.35713 15.157 8.83913 14.354H8.84013ZM11.0151 24V14.617L10.5551 15.383C9.81313 16.619 8.51113 17.328 7.14013 17.328C6.71513 17.328 6.28413 17.261 5.86013 17.119L2.01513 15.838V17.491C2.01513 19.643 3.39213 21.554 5.43413 22.234L9.86913 23.712C10.2431 23.833 10.6271 23.933 11.0151 24ZM23.7351 10.596L22.5781 8.668C22.2491 8.119 21.5831 7.87299 20.9761 8.075L13.0151 10.729L15.1901 14.353C15.6721 15.157 16.6481 15.518 17.5371 15.221L22.6551 13.515C23.8661 13.111 24.3921 11.691 23.7351 10.596ZM16.8901 17.329C15.5191 17.329 14.2171 16.621 13.4751 15.384L13.0151 14.618V23.996C13.4371 23.922 13.8551 23.814 14.2511 23.682H14.2611L18.5961 22.236C20.6381 21.555 22.0151 19.645 22.0151 17.493V15.839L18.1701 17.121C17.7461 17.263 17.3151 17.329 16.8901 17.329ZM19.1271 6.23299C19.0471 6.56899 18.7991 6.83999 18.4711 6.94899L12.3941 8.974C12.2911 9.008 12.1841 9.026 12.0781 9.026C11.9721 9.026 11.8641 9.009 11.7621 8.974L8.07913 7.71799L13.2881 2.528C14.0701 1.745 15.3381 1.746 16.1181 2.526L18.8631 5.29599C19.1071 5.54199 19.2061 5.89599 19.1261 6.23299H19.1271ZM4.85113 6.75599C4.52013 6.64699 4.27113 6.371 4.19313 6.03099C4.11513 5.69099 4.21913 5.33599 4.46913 5.09199L9.09413 0.576995C9.86413 -0.195005 11.1341 -0.193005 11.9131 0.585995L12.2161 0.888995C12.0901 0.987995 11.9601 1.07899 11.8451 1.19399L5.93113 7.08799L4.85113 6.75599Z" fill="#E629E0"/>
</g>
<defs>
<clipPath id="clip0_1376_32006">
<rect width="24" height="24" fill="white"/>
</clipPath>
</defs>
</svg>
