<svg width="24" height="24" viewBox="0 0 24 24" fill="none" xmlns="http://www.w3.org/2000/svg">
<g clip-path="url(#clip0_1376_34057)">
<path d="M15 5.87899V3.49999C15 3.10199 15.158 2.72099 15.439 2.43899L17.439 0.438993C17.867 0.00999334 18.512 -0.119007 19.074 0.113993C19.635 0.345993 20 0.892993 20 1.49999V2.99999H21.5C22.107 2.99999 22.654 3.36499 22.886 3.92599C23.118 4.48699 22.99 5.13199 22.561 5.56099L20.561 7.56099C20.28 7.84199 19.898 7.99999 19.5 7.99999H17.121L13.062 12.059C12.652 12.481 11.972 12.617 11.43 12.386C11.06 12.234 10.766 11.939 10.613 11.569C10.382 11.027 10.518 10.347 10.94 9.93699L14.999 5.87799L15 5.87899ZM11.669 7.08499C12.479 6.27199 11.714 4.87799 10.602 5.16099C9.548 5.42799 8.528 6.02399 7.757 6.75999C5.117 9.39999 5.456 13.909 8.776 16.069C10.695 17.318 13.251 17.324 15.181 16.094C16.496 15.238 17.49 13.865 17.846 12.433C18.13 11.294 16.703 10.518 15.877 11.352C14.918 12.32 14.181 13.063 14.121 13.124C12.951 14.294 11.048 14.294 9.878 13.124C8.708 11.954 8.708 10.051 9.878 8.88099C10.133 8.62599 10.835 7.92199 11.669 7.08499ZM19.32 19.187C21.572 17.171 22.999 14.253 22.999 11C22.999 10.807 22.994 10.615 22.984 10.425C22.942 9.59799 22.232 8.95399 21.411 9.00199C20.584 9.04399 19.947 9.74799 19.988 10.575C19.995 10.716 19.999 10.858 19.999 11C19.999 15.411 16.41 19 11.999 19C7.588 19 4 15.411 4 11C4 6.58899 7.589 2.99999 12 2.99999C12.142 2.99999 12.284 3.00399 12.425 3.01099C13.257 3.05699 13.957 2.41499 13.998 1.58799C14.04 0.759993 13.402 0.0559933 12.575 0.0149933C12.385 0.00499334 12.193 -6.66262e-06 12 -6.66262e-06C5.935 -6.66262e-06 1 4.93499 1 11C1 14.253 2.428 17.172 4.679 19.187L3.2 21.75C2.786 22.467 3.032 23.385 3.75 23.799C4.455 24.21 5.382 23.973 5.799 23.249L7.172 20.868C8.632 21.585 10.266 21.999 11.999 21.999C13.732 21.999 15.367 21.585 16.826 20.868L18.199 23.249C18.615 23.973 19.543 24.209 20.248 23.799C20.966 23.385 21.212 22.467 20.798 21.75L19.32 19.187Z" fill="#34C759"/>
</g>
<defs>
<clipPath id="clip0_1376_34057">
<rect width="24" height="24" fill="white"/>
</clipPath>
</defs>
</svg>
